<?xml version="1.0" encoding="UTF-8"?>
<svg width="194px" height="89px" viewBox="0 0 194 89" version="1.1" xmlns="http://www.w3.org/2000/svg" xmlns:xlink="http://www.w3.org/1999/xlink">
    <!-- Generator: Sketch 60.1 (88133) - https://sketch.com -->
    <title>COMP_FYP_Logo.ai</title>
    <desc>Created with Sketch.</desc>
    <g id="Page-1" stroke="none" stroke-width="1" fill="none" fill-rule="evenodd">
        <g id="COMP_FYP_Logo.ai" fill-rule="nonzero">
            <path d="M94.54,1.33 L94.54,4.44 L96.89,4.44 L96.89,5.24 L94.54,5.24 L94.54,8.97 L93.63,8.97 L93.63,0.53 L97.08,0.53 L97.08,1.33 L94.54,1.33 Z M89.13,1.19 C88.4595435,1.19079929 87.8506559,1.5811118 87.57,2.19 C87.175581,2.99793199 86.9899259,3.89182715 87.03,4.79 C86.9796789,5.6846425 87.1622928,6.57703897 87.56,7.38 C87.8296521,7.98919189 88.4337982,8.38149459 89.1,8.38 C89.750084,8.39335858 90.3481136,8.02594169 90.63,7.44 C91.0197078,6.64144213 91.2019821,5.75758341 91.16,4.87 C91.2026281,3.95871645 91.027814,3.05036828 90.65,2.22 C90.3923575,1.60567093 89.7960669,1.20160561 89.13,1.19 Z M89.06,9.12 C88.1747041,9.15355472 87.3377674,8.71606503 86.86,7.97 C86.2949556,7.03094087 86.0233416,5.94448482 86.08,4.85 C86.0236561,3.70862817 86.3016926,2.57562918 86.88,1.59 C87.3748384,0.810376402 88.2473289,0.353176138 89.17,0.39 C90.0511009,0.351173106 90.8845751,0.790849864 91.35,1.54 C92.3891962,3.5538401 92.3891962,5.9461599 91.35,7.96 C90.849693,8.72909766 89.9760521,9.17164063 89.06,9.12 Z M80.68,1.33 L80.68,8.97 L79.77,8.97 L79.77,1.33 L77.91,1.33 L77.91,0.53 L82.55,0.53 L82.55,1.33 L80.68,1.33 Z M75.68,8.97 L72.55,2.68 C72.4225789,2.43370047 72.3187817,2.17588163 72.24,1.91 L72.24,1.91 C72.24,2.04 72.24,2.23 72.24,2.47 L72.24,8.97 L71.43,8.97 L71.43,0.53 L72.43,0.53 L75.53,6.81 C75.59,6.95 75.68,7.15 75.79,7.43 C75.7959075,7.48454581 75.8166601,7.53642715 75.85,7.58 L75.85,7.58 L75.85,6.58 L75.85,0.58 L76.67,0.58 L76.67,9.02 L75.68,8.97 Z M66.25,8.97 L66.25,0.53 L69.69,0.53 L69.69,1.33 L67.15,1.33 L67.15,4.33 L69.5,4.33 L69.5,5.13 L67.15,5.13 L67.15,8.18 L69.84,8.18 L69.84,8.97 L66.25,8.97 Z M63.5,8.97 L63.5,3.31 C63.4839549,3.01688608 63.4839549,2.72311392 63.5,2.43 C63.5,2.16 63.5,1.95 63.5,1.78 L63.5,1.78 C63.4780913,2.13219182 63.4177325,2.48093154 63.32,2.82 L61.32,8.94 L60.68,8.94 L58.68,2.87 C58.5775331,2.49170105 58.4973949,2.10770528 58.44,1.72 L58.44,1.72 C58.44,2.31 58.51,2.86 58.51,3.36 L58.51,8.94 L57.72,8.94 L57.72,0.5 L58.86,0.5 L60.86,6.6 C60.9576327,6.91122034 61.0344687,7.22858669 61.09,7.55 L61.09,7.55 C61.09,7.43 61.15,7.26 61.2,7.04 L61.31,6.55 L63.31,0.55 L64.32,0.55 L64.32,8.99 L63.5,8.97 Z M54.57,1.33 L54.57,8.97 L53.66,8.97 L53.66,1.33 L51.79,1.33 L51.79,0.53 L56.43,0.53 L56.43,1.33 L54.57,1.33 Z M47.57,1.33 L47.57,4.58 L48.49,4.58 C48.8744124,4.57959239 49.2395495,4.41162932 49.49,4.12 C49.7689452,3.78032204 49.9115283,3.34900803 49.89,2.91 C49.9156673,2.4876551 49.7838387,2.07079173 49.52,1.74 C49.2374486,1.45803517 48.8486231,1.30904596 48.45,1.33 L47.57,1.33 Z M50.11,8.98 L49.3,6.64 C49.1896697,6.27945467 49.0170636,5.94101133 48.79,5.64 C48.6379783,5.46811502 48.4194668,5.36978483 48.19,5.37 L47.57,5.37 L47.57,8.97 L46.67,8.97 L46.67,0.53 L48.67,0.53 C49.2757914,0.489346208 49.8697365,0.711620148 50.3,1.14 C50.6956545,1.58461727 50.903552,2.16529645 50.88,2.76 C50.9972928,3.80304054 50.3407978,4.77719446 49.33,5.06 L49.33,5.06 C49.65,5.18 49.94,5.6 50.19,6.33 L51.13,8.93 L50.11,8.98 Z M42.81,2.3 C42.7504616,2.04584112 42.703736,1.78885022 42.67,1.53 L42.67,1.53 L42.67,1.67 C42.62,1.96 42.57,2.16 42.54,2.28 L41.54,5.79 L43.8,5.79 L42.81,2.3 Z M44.63,8.98 L43.97,6.55 L41.32,6.55 L40.64,8.98 L39.64,8.98 L42.12,0.54 L43.12,0.54 L45.56,8.98 L44.63,8.98 Z M35.87,1.34 L35.87,4.99 L36.67,4.99 C37.1167494,5.01557378 37.5497124,4.83054689 37.84,4.49 C38.1304485,4.09041691 38.2751568,3.60334987 38.25,3.11 C38.25,1.93 37.75,1.34 36.75,1.34 L35.87,1.34 Z M35.87,5.8 L35.87,8.98 L34.96,8.98 L34.96,0.54 L36.89,0.54 C37.5214272,0.50494709 38.1384553,0.737240021 38.59,1.18 C39.0205834,1.70090846 39.2384636,2.36526431 39.2,3.04 C39.2235786,3.76375969 38.989718,4.47242816 38.54,5.04 C38.0884586,5.57103813 37.4162866,5.8628051 36.72,5.83 L35.87,5.8 Z M29.78,8.98 L29.78,0.54 L33.22,0.54 L33.22,1.34 L30.69,1.34 L30.69,4.34 L33.04,4.34 L33.04,5.14 L30.69,5.14 L30.69,8.19 L33.32,8.19 L33.32,8.98 L29.78,8.98 Z M23.78,1.34 L23.78,8.19 L24.7,8.19 C25.4552522,8.22058379 26.1757921,7.87157227 26.62,7.26 C27.1288663,6.49580075 27.3746248,5.58649413 27.32,4.67 C27.3761317,3.79663511 27.1442839,2.92896236 26.66,2.2 C26.200489,1.620531 25.4884642,1.29993343 24.75,1.34 L23.78,1.34 Z M22.88,8.98 L22.88,0.54 L24.78,0.54 C25.750077,0.464906804 26.7020904,0.832479569 27.37,1.54 C28.0194092,2.42255218 28.3347685,3.50682097 28.26,4.6 C28.3352527,5.75049649 28.0024034,6.89068263 27.32,7.82 C26.7010212,8.61357665 25.7353176,9.05727829 24.73,9.01 L22.88,8.98 Z M14.95,8.98 L14.95,0.54 L18.32,0.54 L18.32,1.34 L15.79,1.34 L15.79,4.34 L18.14,4.34 L18.14,5.14 L15.79,5.14 L15.79,8.19 L18.48,8.19 L18.48,8.98 L14.95,8.98 Z M12.1,8.98 L12.1,5.08 L8.92,5.08 L8.92,8.98 L8.02,8.98 L8.02,0.54 L8.92,0.54 L8.92,4.26 L12.1,4.26 L12.1,0.54 L13.01,0.54 L13.01,8.98 L12.1,8.98 Z M4.96,1.34 L4.96,8.98 L4.05,8.98 L4.05,1.34 L2.19,1.34 L2.19,0.54 L6.83,0.54 L6.83,1.34 L4.96,1.34 Z" id="Shape" fill="#203A66"></path>
            <path d="M11.92,32.25 C10.7379355,32.9207822 9.39903412,33.2658599 8.04,33.25 C5.8082049,33.3397545 3.67173031,32.3404959 2.31,30.57 C0.796165142,28.4364578 0.0521694146,25.851866 0.2,23.24 C0.2,19.72 0.92,17.01 2.38,15.12 C3.83805375,13.232639 6.12810039,12.1791429 8.51,12.3 C9.6825057,12.2880204 10.844389,12.5231229 11.92,12.99 L11.92,16.78 C11.0048761,16.0864181 9.88826264,15.7107022 8.74,15.71 C7.37008324,15.6926922 6.10334485,16.435794 5.45,17.64 C4.56891856,19.240805 4.15000177,21.0549571 4.24,22.88 C4.14355702,24.6600853 4.54157723,26.4321404 5.39,28 C6.02552574,29.1567998 7.25036834,29.8655137 8.57,29.84 C9.78307415,29.8277719 10.9591189,29.4205444 11.92,28.68 L11.92,32.25 Z" id="Path" fill="#845C18"></path>
            <path d="M100.32,17.82 L100.32,23.04 L101.41,23.04 C102.058747,23.0616491 102.677651,22.7671102 103.07,22.25 C103.502373,21.6940959 103.725393,21.0037978 103.7,20.3 C103.733356,19.6461904 103.52714,19.0026561 103.12,18.49 C102.679679,18.0209958 102.051731,17.7749576 101.41,17.82 L100.32,17.82 Z M104.16,32.82 L102.88,28.43 C102.39,26.75 101.71,25.91 100.88,25.9 L100.32,25.9 L100.32,32.82 L96.86,32.82 L96.86,14.82 L101.86,14.82 C105.473333,14.82 107.28,16.44 107.28,19.68 C107.472829,21.8361091 106.155501,23.8410996 104.1,24.52 L104.1,24.58 C105.05,24.91 105.81,25.97 106.39,27.77 L108.01,32.83 L104.16,32.82 Z M86.07,32.82 L86.07,14.82 L94.32,14.82 L94.32,17.82 L89.51,17.82 L89.51,22.31 L94.02,22.31 L94.02,25.31 L89.51,25.31 L89.51,29.85 L94.64,29.85 L94.64,32.85 L86.07,32.82 Z M80.45,17.82 L80.45,32.82 L76.98,32.82 L76.98,17.82 L73.32,17.82 L73.32,14.82 L84.09,14.82 L84.09,17.82 L80.45,17.82 Z M71.53,25.23 C71.53,30.51 69.66,33.1533333 65.92,33.1600129 C62.18,33.1666667 60.3133333,30.59 60.3199822,25.43 L60.3199822,14.82 L63.79,14.82 L63.79,25.82 C63.79,28.7 64.51,30.14 65.97,30.14 C66.6692937,30.1815327 67.3201829,29.7822142 67.6,29.14 C67.9749529,28.1202921 68.1382728,27.0348955 68.08,25.95 L68.08,14.82 L71.56,14.82 L71.53,25.23 Z M51.1,17.82 L51.1,23.68 L52.32,23.68 C53.89,23.68 54.68,22.68 54.68,20.68 C54.7358205,19.8952664 54.4969143,19.1179298 54.01,18.5 C53.5662439,18.0187403 52.9341704,17.7556808 52.28,17.78 L51.1,17.82 Z M51.1,26.7 L51.1,32.82 L47.63,32.82 L47.63,14.82 L52.83,14.82 C54.3099161,14.731235 55.759743,15.2640464 56.83,16.29 C57.8495678,17.4699429 58.3633182,19.0040086 58.26,20.56 C58.3107808,22.1722561 57.7499304,23.7440659 56.69,24.96 C55.6302948,26.1216107 54.1110176,26.754948 52.54,26.69 L51.1,26.7 Z M41.61,32.82 L41.61,22.39 C41.61,21.49 41.61,20.12 41.74,18.3 L41.66,18.3 C41.5466667,19.0733333 41.3666667,20.0733333 41.12,21.3 L38.5,32.82 L35.32,32.82 L32.57,21.45 L32.08,18.26 L31.98,18.26 C32.06,19.96 32.1,21.63 32.11,23.26 L32.11,32.82 L29.23,32.82 L29.23,14.82 L34.09,14.82 L36.62,25.82 C36.8296646,26.732646 36.9799794,27.6579172 37.07,28.59 L37.13,28.59 L37.22,27.92 C37.2856391,27.1785358 37.3891073,26.4409082 37.53,25.71 L39.92,14.82 L44.59,14.82 L44.59,32.82 L41.61,32.82 Z M20.41,17.54 C18.45,17.54 17.47,19.64 17.47,23.84 C17.47,28.02 18.47,30.1 20.34,30.1 C21.3089883,30.0674111 22.1513879,29.4255828 22.44,28.5 C22.9882015,27.0449375 23.2332157,25.493181 23.16,23.94 C23.16,19.7 22.2433333,17.58 20.41,17.58 L20.41,17.54 Z M20.26,33.14 C18.381359,33.2159078 16.5980281,32.3109904 15.55,30.75 C14.3249401,28.738461 13.7423679,26.4011951 13.88,24.05 C13.7420883,21.598616 14.3373921,19.1616999 15.59,17.05 C16.6533613,15.4192943 18.4946155,14.4663978 20.44,14.54 C22.3180106,14.4460329 24.1083674,15.3412113 25.16,16.9 C26.23,18.48 26.76,20.77 26.77,23.8 C26.9070064,26.2233707 26.3186286,28.6325864 25.08,30.72 C24.0116928,32.3238001 22.1855405,33.2558197 20.26,33.18 L20.26,33.14 Z" id="Shape" fill="#203A66"></path>
            <path d="M115.41,32.14 L115.41,28.08 C116.580125,29.1038722 118.05783,29.7090278 119.61,29.8 C120.231322,29.8337546 120.836796,29.5966714 121.27,29.15 C121.656655,28.7119456 121.863784,28.1441267 121.85,27.56 C121.857724,26.9590551 121.660174,26.3734612 121.29,25.9 C120.659088,25.2310784 119.922625,24.6702858 119.11,24.24 C116.55,22.73 115.27,20.77 115.27,18.33 C115.196286,16.7062908 115.784476,15.1221472 116.9,13.94 C118.029188,12.8002138 119.587098,12.1901233 121.19,12.26 C122.541541,12.2292011 123.884296,12.4848018 125.13,13.01 L125.13,16.82 C124.072402,16.121581 122.837243,15.739931 121.57,15.72 C120.978511,15.7111861 120.408614,15.9420305 119.99,16.36 C119.555483,16.7723572 119.318792,17.3513398 119.34,17.95 C119.34,19.17 120.15,20.25 121.77,21.2 C123.060253,21.848323 124.177701,22.7943833 125.03,23.96 C125.646219,24.9745462 125.961783,26.1431741 125.94,27.33 C126.00361,28.9118779 125.430969,30.453328 124.35,31.61 C123.127466,32.7797785 121.467843,33.3789858 119.78,33.26 C118.959943,33.253377 118.143814,33.1459033 117.35,32.94 C116.662277,32.7864436 116.00606,32.5158385 115.41,32.14 Z" id="Path" fill="#845C18"></path>
            <path d="M184.71,32.82 L184.71,14.82 L192.99,14.82 L192.99,17.82 L188.17,17.82 L188.17,22.31 L192.68,22.31 L192.68,25.31 L188.17,25.31 L188.17,29.85 L193.32,29.85 L193.32,32.85 L184.71,32.82 Z M182.32,32.32 C181.267148,32.899707 180.081791,33.1960463 178.88,33.18 C176.894,33.2526518 174.994942,32.3627012 173.78,30.79 C172.436973,28.8908209 171.777737,26.5923066 171.91,24.27 C171.91,21.14 172.55,18.73 173.84,17.06 C175.138724,15.3847323 177.172739,14.4479656 179.29,14.55 C180.321702,14.5408121 181.343809,14.7486406 182.29,15.16 L182.29,18.53 C181.485842,17.8950879 180.4945,17.5435482 179.47,17.53 C178.252096,17.5136871 177.124834,18.1715772 176.54,19.24 C175.759277,20.6681231 175.388947,22.284425 175.47,23.91 C175.377853,25.4898255 175.723914,27.0644016 176.47,28.46 C177.039342,29.4848456 178.127829,30.1117839 179.3,30.09 C180.381851,30.09 181.434519,29.7391106 182.3,29.09 L182.32,32.32 Z M165.59,32.86 L161.59,22.57 C161.42,22.14 161.21,21.46 160.94,20.57 C160.87,20.34 160.81,20.15 160.77,19.99 L160.71,19.99 C160.76,21.39 160.79,22.62 160.79,23.67 L160.79,32.82 L157.89,32.82 L157.89,14.82 L161.82,14.82 L165.82,25.35 C165.95,25.68 166.2,26.54 166.59,27.92 L166.59,27.92 L166.54,24.92 L166.54,14.82 L169.44,14.82 L169.44,32.82 L165.59,32.86 Z M147.08,32.86 L147.08,14.82 L155.32,14.82 L155.32,17.82 L150.51,17.82 L150.51,22.31 L155.02,22.31 L155.02,25.31 L150.51,25.31 L150.51,29.85 L155.64,29.85 L155.64,32.85 L147.08,32.86 Z M140.54,32.86 L140.54,14.82 L144.01,14.82 L144.01,32.82 L140.54,32.86 Z M138.11,32.32 C137.056147,32.8971526 135.871472,33.1933213 134.67,33.18 C132.683659,33.2543271 130.783873,32.364035 129.57,30.79 C128.226973,28.8908209 127.567737,26.5923066 127.7,24.27 C127.7,21.14 128.34,18.73 129.63,17.06 C130.926541,15.3819877 132.962072,14.4445228 135.08,14.55 C136.111702,14.5408121 137.133809,14.7486406 138.08,15.16 L138.08,18.53 C137.27475,17.8970674 136.284101,17.5457732 135.26,17.53 C134.041506,17.5114422 132.913169,18.1699594 132.33,19.24 C131.544806,20.6664222 131.174181,22.2840094 131.26,23.91 C131.167853,25.4898255 131.513914,27.0644016 132.26,28.46 C132.822675,29.4865131 133.909651,30.1148007 135.08,30.09 C136.161851,30.09 137.214519,29.7391106 138.08,29.09 L138.11,32.32 Z" id="Shape" fill="#203A66"></path>
            <path d="M50.18,54.04 C49.1855549,54.7343362 48.6009613,55.8772917 48.62,57.09 C48.574215,57.8101638 48.7948886,58.5220141 49.24,59.09 C49.6282014,59.6012722 50.2382284,59.8951267 50.88,59.88 C51.8698159,59.8542778 52.7954097,59.384135 53.4,58.6 L50.18,54.04 Z M51.09,50.65 C52.0883953,50.041104 52.7011155,48.9593881 52.71,47.79 C52.71,46.59 52.26,45.99 51.36,45.99 C50.9533152,45.974952 50.5704704,46.1816881 50.36,46.53 C50.0917934,46.9125532 49.9581401,47.3733054 49.98,47.84 C50.028417,48.8737848 50.4188594,49.8622021 51.09,50.65 Z M55.73,61.82 L54.73,60.41 C53.6693896,61.533249 52.1846093,62.1576553 50.64,62.13 C49.301662,62.199184 47.9945428,61.7103721 47.03,60.78 C46.1132077,59.8325246 45.6314506,58.5466316 45.7,57.23 C45.7,55.3633333 46.7766667,53.6966667 48.93,52.23 C48.0397664,51.080629 47.5294838,49.6825946 47.47,48.23 C47.422481,47.0956045 47.804578,45.9850235 48.54,45.12 C49.2770149,44.3021317 50.3399678,43.8549584 51.44,43.9 C52.484328,43.8527553 53.501591,44.2401117 54.25,44.97 C54.9254806,45.7154442 55.284152,46.6946171 55.25,47.7 C55.25,49.55 54.25,51.12 52.25,52.43 L54.92,56.09 C55.3693005,54.8817496 55.5831491,53.5986586 55.55,52.31 L58.07,52.31 C58.1125415,54.4010652 57.5424648,56.4589027 56.43,58.23 L59.03,61.83 L55.73,61.82 Z" id="Shape" fill="#203A66"></path>
            <polygon id="Path" fill="#845C18" points="66.58 61.8 66.58 41.54 75.89 41.54 75.89 44.9 70.48 44.9 70.48 49.96 75.55 49.96 75.55 53.32 70.48 53.32 70.48 58.43 76.24 58.43 76.24 61.8"></polygon>
            <path d="M193.1,60.62 C191.815731,61.6691008 190.185828,62.2005132 188.53,62.11 C186.543859,62.1792187 184.639215,61.3175057 183.38,59.78 C181.978484,57.9180423 181.290253,55.6156634 181.44,53.29 C181.27265,50.8168615 181.980642,48.3636699 183.44,46.36 C184.775002,44.7164142 186.803893,43.7945279 188.92,43.87 C190.14059,43.823564 191.354523,44.0704655 192.46,44.59 L192.46,47.93 C191.513775,47.2060928 190.351244,46.8221054 189.16,46.84 C187.903968,46.8186948 186.729684,47.4609404 186.07,48.53 C185.231595,49.9343312 184.831188,51.556849 184.92,53.19 C184.822854,54.7096066 185.170333,56.2246164 185.92,57.55 C186.440682,58.5190235 187.449957,59.1253561 188.55,59.13 C188.954352,59.1439751 189.354003,59.0397185 189.7,58.83 L189.7,54.83 L187.35,54.83 L187.35,51.9 L193.02,51.9 L193.1,60.62 Z M175.25,61.82 L171.32,51.73 C171.15,51.31 170.94,50.64 170.68,49.73 C170.61,49.51 170.55,49.32 170.51,49.17 L170.46,49.17 C170.51,50.54 170.53,51.74 170.53,52.77 L170.53,61.77 L167.69,61.77 L167.69,44.17 L171.54,44.17 L175.45,54.47 C175.57,54.7966667 175.82,55.6366667 176.2,56.99 L176.2,56.99 L176.15,54.09 L176.15,44.17 L178.99,44.17 L178.99,61.82 L175.25,61.82 Z M161.32,61.82 L161.32,44.17 L164.72,44.17 L164.72,61.82 L161.32,61.82 Z M151.88,47.04 L151.88,52.15 L152.88,52.15 C153.51476,52.1666397 154.119707,51.8808673 154.51,51.38 C154.933514,50.8347884 155.156026,50.1601907 155.14,49.47 C155.169993,48.8288744 154.963607,48.1990418 154.56,47.7 C154.127932,47.2382802 153.510807,46.9958386 152.88,47.04 L151.88,47.04 Z M155.61,61.82 L154.36,57.52 C153.87,55.88 153.2,55.05 152.36,55.05 L151.86,55.05 L151.86,61.82 L148.46,61.82 L148.46,44.17 L153.37,44.17 C156.91,44.17 158.68,45.76 158.68,48.92 C158.869541,51.0334814 157.576184,52.9983884 155.56,53.66 L155.56,53.72 C156.486667,54.0466667 157.236667,55.0866667 157.81,56.84 L159.4,61.84 L155.61,61.82 Z M137.88,61.82 L137.88,44.17 L145.99,44.17 L145.99,47.09 L141.32,47.09 L141.32,51.49 L145.74,51.49 L145.74,54.42 L141.32,54.42 L141.32,58.87 L146.32,58.87 L146.32,61.82 L137.88,61.82 Z M127.32,61.82 L127.32,44.17 L135.43,44.17 L135.43,47.09 L130.72,47.09 L130.72,51.49 L135.13,51.49 L135.13,54.42 L130.72,54.42 L130.72,58.87 L135.72,58.87 L135.72,61.82 L127.32,61.82 Z M120.56,61.82 L116.63,51.75 C116.47,51.33 116.26,50.6633333 116,49.75 L115.82,49.19 L115.77,49.19 C115.82,50.56 115.84,51.76 115.85,52.79 L115.85,61.79 L113.01,61.79 L113.01,44.17 L116.86,44.17 L120.77,54.47 C120.89,54.8 121.14,55.64 121.51,56.99 L121.51,56.99 L121.51,54.09 L121.51,44.17 L124.32,44.17 L124.32,61.82 L120.56,61.82 Z M106.56,61.82 L106.56,44.17 L109.95,44.17 L109.95,61.82 L106.56,61.82 Z M103.86,60.64 C102.580221,61.6901801 100.952957,62.221896 99.3,62.13 C97.3138594,62.1992187 95.4092148,61.3375057 94.15,59.8 C92.7484839,57.9380423 92.0602535,55.6356634 92.21,53.31 C92.0426498,50.8368615 92.7506416,48.3836699 94.21,46.38 C95.5450025,44.7364142 97.5738927,43.8145279 99.69,43.89 C100.907463,43.842426 102.118421,44.0894203 103.22,44.61 L103.22,47.95 C102.27834,47.2247154 101.118435,46.8404309 99.93,46.86 C98.6739675,46.8386948 97.4996841,47.4809404 96.84,48.55 C95.9981016,49.9532396 95.5941949,51.5758299 95.68,53.21 C95.5874616,54.72923 95.9346445,56.2429475 96.68,57.57 C97.2023861,58.5421727 98.2163669,59.1490248 99.32,59.15 C99.7210444,59.1626005 100.117107,59.0583735 100.46,58.85 L100.46,54.85 L98.12,54.85 L98.12,51.92 L103.78,51.92 L103.86,60.64 Z M86.06,61.82 L82.14,51.75 C81.97,51.33 81.76,50.66 81.5,49.75 C81.43,49.53 81.37,49.34 81.33,49.19 L81.33,49.19 C81.33,50.56 81.4,51.76 81.4,52.79 L81.4,61.79 L78.56,61.79 L78.56,44.17 L82.32,44.17 L86.23,54.47 C86.35,54.7966667 86.6,55.6366667 86.98,56.99 L86.98,56.99 L86.98,54.09 L86.98,44.17 L89.82,44.17 L89.82,61.82 L86.06,61.82 Z" id="Shape" fill="#203A66"></path>
            <path d="M188.06,83.23 C188.457937,82.9473626 188.814681,82.6108124 189.12,82.23 C189.67,82.68 190.32,83.23 191.12,83.77 C191.92,84.31 192.55,84.89 193.12,85.39 C192.687309,85.730367 192.285728,86.1085218 191.92,86.52 C191.318646,85.8765106 190.673795,85.2750947 189.99,84.72 C189.303333,84.12 188.66,83.6233333 188.06,83.23 Z M180.53,82.23 C180.997026,82.610324 181.499306,82.9451774 182.03,83.23 C181.339464,83.6481941 180.70731,84.1559354 180.15,84.74 C179.460222,85.4494184 178.728936,86.1172599 177.96,86.74 C177.61076,86.3776931 177.205602,86.0738241 176.76,85.84 C178.221723,84.8790187 179.498713,83.6629988 180.53,82.25 L180.53,82.23 Z M177.82,71.82 C180.52,71.82 182.95,71.72 185.08,71.51 C187.104513,71.3455867 189.111597,71.0110727 191.08,70.51 C191.380163,71.0873872 191.760609,71.6193393 192.21,72.09 C190.8,72.14 189.57,72.23 188.52,72.35 C187.47,72.47 186.18,72.62 184.67,72.77 C184.994596,73.0386144 185.350519,73.2669423 185.73,73.45 C185.009134,73.797715 184.336779,74.2381075 183.73,74.76 C183.12,75.3 182.52,75.76 181.92,76.23 L185.84,76.23 C186.859376,75.5381143 187.816348,74.7584829 188.7,73.9 C189.24159,74.327817 189.820593,74.7060099 190.43,75.03 C189.769765,75.284788 189.128194,75.5855244 188.51,75.93 C187.88,76.29 186.87,76.93 185.46,77.82 C184.05,78.71 182.82,79.45 181.77,80 C184.63,79.9133333 187.296667,79.8133333 189.77,79.7 C189.52,79.45 188.89,78.95 187.89,78.19 C188.338975,77.9439995 188.770044,77.666645 189.18,77.36 C189.72,77.82 190.36,78.36 191.09,79.02 C191.82,79.68 192.54,80.33 193.24,81.02 C192.752418,81.2993563 192.299317,81.6349866 191.89,82.02 C191.48,81.57 191.11,81.17 190.76,80.81 C189.45,80.87 187.92,80.94 186.16,81.04 L186.16,85.49 C186.16,86.39 185.92,86.94 185.44,87.15 C184.645382,87.4311893 183.824629,87.6321899 182.99,87.75 C182.858655,87.1418011 182.632564,86.5580159 182.32,86.02 C182.989027,86.0498693 183.659344,86.0096503 184.32,85.9 C184.57,85.83 184.7,85.54 184.7,85.03 L184.7,81.03 C182.690735,81.0057413 180.683168,81.1563088 178.7,81.48 C178.624702,80.9161491 178.497495,80.3604564 178.32,79.82 C179.297097,79.7395458 180.252031,79.4855739 181.14,79.07 C182.183592,78.5420609 183.186372,77.9370507 184.14,77.26 C183.03,77.26 182.19,77.26 181.61,77.33 C181.03,77.4 180.42,77.46 179.77,77.56 C179.672953,77.0496726 179.546069,76.5454741 179.39,76.05 C180.288508,76.0222081 181.145769,75.6664982 181.8,75.05 C182.539483,74.4375327 183.177374,73.7118898 183.69,72.9 C181.023333,73 179.263333,73.1 178.41,73.2 C178.249956,72.7251903 178.052676,72.2637568 177.82,71.82 L177.82,71.82 Z M163.87,74.9 C164.002391,74.6004667 164.181262,74.3237237 164.4,74.08 L165.76,74.83 L166.66,73.92 C166.96,74.18 167.26,74.45 167.57,74.75 C167.190519,74.9330577 166.834596,75.1613856 166.51,75.43 L167.79,76.26 C167.51555,76.4842926 167.264293,76.7355504 167.04,77.01 C166.58,76.66 166.15,76.34 165.76,76.01 C165.3,76.37 164.76,76.74 164.25,77.14 C164.029679,76.9357329 163.828816,76.7114354 163.65,76.47 C164.14,76.17 164.65,75.87 165.08,75.56 C164.62,75.37 164.22,75.15 163.87,74.94 L163.87,74.9 Z M161.76,75.13 C162.138243,75.1350436 162.51624,75.1082827 162.89,75.05 L162.89,76.11 C162.51518,76.0616776 162.137889,76.0349668 161.76,76.03 L160.63,76.03 L160.63,77.39 L170.5,77.39 L170.66,76.03 L169.45,76.03 C169.145248,76.0368244 168.841268,76.063548 168.54,76.11 L168.54,75.11 L170.66,75.11 L170.81,73.83 L169.45,73.83 C169.145407,73.8321132 168.841333,73.8555035 168.54,73.9 L168.54,72.9 L170.88,72.9 L171.03,71.78 L169.32,71.78 C169.041715,71.7762922 168.763733,71.7997366 168.49,71.85 L168.49,70.79 C168.99,70.79 169.54,70.87 170.15,70.87 L172.26,70.87 C172.16,71.87 172.05,72.92 171.96,74 C171.87,75.08 171.75,76.2 171.65,77.35 L173.84,77.35 C173.793091,77.7750502 173.769722,78.2023692 173.77,78.63 C173.769475,79.0576374 173.792844,79.4849701 173.84,79.91 L172.56,79.91 L172.56,78.25 L158.82,78.25 L158.82,79.99 L157.54,79.99 C157.54,79.44 157.61,78.99 157.62,78.59 C157.63,78.19 157.62,77.8 157.54,77.35 L159.54,77.35 C159.54,76.45 159.54,75.64 159.54,74.94 C159.54,74.24 159.49,73.62 159.47,73.09 C159.45,72.56 159.4,71.8 159.36,70.79 C160.437497,70.749908 161.502796,70.5476359 162.52,70.19 C162.652323,70.6604656 162.884228,71.0969917 163.2,71.47 L161.73,71.59 C161.364814,71.605123 161.000844,71.6418539 160.64,71.7 L160.64,72.9 L161.32,72.9 C161.77,72.9 162.27,72.83 162.83,72.83 L162.83,73.83 C162.33,73.83 161.83,73.76 161.32,73.76 L160.57,73.76 L160.57,75.04 L161.76,75.13 Z M167.49,71.13 C167.078461,71.3833949 166.699045,71.6855847 166.36,72.03 C166.81,72.33 167.23,72.64 167.64,72.93 C167.34,73.24 167.08,73.52 166.89,73.76 C166.509722,73.3842836 166.105545,73.0335518 165.68,72.71 C165.28,73.01 164.83,73.39 164.32,73.84 C164.030582,73.6045936 163.756678,73.3507314 163.5,73.08 C164.05,72.73 164.5,72.41 164.93,72.08 C164.53,71.79 164.1,71.48 163.65,71.18 C163.826765,70.8920043 164.053681,70.6379943 164.32,70.43 C164.73,70.73 165.15,71.06 165.6,71.43 L166.6,70.3 C166.88,70.6 167.18,70.88 167.49,71.18 L167.49,71.13 Z M160.41,79.34 C161.31,79.4 162.21,79.42 163.12,79.42 L171.03,79.42 L171.03,80.32 C170.03,80.68 169.17,81.01 168.47,81.32 C167.786047,81.6175785 167.118434,81.9513849 166.47,82.32 L166.47,82.82 L171.07,82.82 C171.87,82.82 172.75,82.82 173.71,82.74 L173.71,83.87 C172.71,83.87 171.87,83.8 171.07,83.79 L166.47,83.79 L166.47,86.43 C166.547937,86.9700232 166.178612,87.4728399 165.64,87.56 C165.04099,87.6675237 164.436865,87.744291 163.83,87.79 C163.707692,87.2692051 163.530014,86.7629908 163.3,86.28 C163.96,86.28 164.45,86.28 164.78,86.28 C165.11,86.28 165.24,85.95 165.19,85.34 L165.19,83.82 L160.07,83.82 C159.31,83.82 158.48,83.82 157.58,83.9 L157.58,82.82 C158.48,82.88 159.31,82.9 160.07,82.9 L165.19,82.9 C165.13,82.55 165.09,82.22 165.04,81.9 C166.109244,81.5131723 167.143085,81.0347281 168.13,80.47 L163.13,80.47 C162.22,80.47 161.29,80.47 160.34,80.55 L160.41,79.34 Z M145.26,78.43 C146.06,78.49 146.89,78.51 147.74,78.51 L151.67,78.51 C152.42,78.51 153.22,78.51 154.08,78.43 L154.08,79.82 C153.22,79.82 152.42,79.75 151.67,79.75 L150.23,79.75 L150.23,82.01 L151.06,82.01 C151.82,82.01 152.64,82.01 153.55,81.93 L153.55,83.29 C152.64,83.24 151.89,83.22 151.29,83.21 L150.23,83.21 L150.23,85.82 L152.04,85.82 C152.84,85.82 153.75,85.82 154.75,85.74 L154.75,87.1 C153.95,87.1 153.04,87.02 152.04,87.02 L147.22,87.02 C146.287741,87.0099028 145.355803,87.060007 144.43,87.17 L144.43,85.72 C145.18,85.72 146.11,85.8 147.22,85.8 L148.88,85.8 L148.88,83.23 L147.88,83.23 C147.147732,83.2380851 146.416531,83.2881674 145.69,83.38 L145.69,81.95 C146.39,82 147.12,82.03 147.88,82.03 L148.88,82.03 L148.88,79.82 L147.74,79.82 C146.89,79.82 146.06,79.82 145.26,79.89 L145.26,78.43 Z M147.07,72.71 L147.07,75.49 L152.19,75.49 L152.19,72.71 L147.07,72.71 Z M145.64,71.5 L153.7,71.5 C153.65,72.56 153.62,73.5 153.62,74.33 C153.62,75.16 153.62,75.95 153.7,76.7 L145.64,76.7 C145.64,75.85 145.71,75.02 145.71,74.21 C145.71,73.4 145.68,72.56 145.64,71.55 L145.64,71.5 Z M142.32,79.69 C142.62,79.44 142.97,79.17 143.38,78.86 C143.82,79.57 144.28,80.27 144.73,80.97 C144.43,81.18 144.05,81.48 143.6,81.87 C143.225244,81.1140749 142.797511,80.385592 142.32,79.69 Z M138.63,73.28 C138.487991,72.8171524 138.310808,72.3658375 138.1,71.93 C139.038401,71.8583651 139.970663,71.721366 140.89,71.52 C141.801542,71.3363055 142.687839,71.0442306 143.53,70.65 C143.778714,71.2256902 144.116144,71.7588296 144.53,72.23 L143.47,72.42 C143.11,72.5 142.74,72.56 142.34,72.61 L142.34,76 C142.99,76 143.69,76 144.45,75.92 L144.45,77.28 C143.69,77.23 142.99,77.21 142.34,77.2 L142.34,83.46 C142.34,84.52 142.34,85.89 142.41,87.6 L140.91,87.6 C140.91,85.89 140.98,84.54 140.98,83.54 L140.98,80.22 C140.345325,81.5500822 139.616819,82.833322 138.8,84.06 C138.470437,83.5939565 138.09158,83.1648092 137.67,82.78 C138.332848,82.0614672 138.92554,81.2812567 139.44,80.45 C140.030309,79.4254886 140.496908,78.3345213 140.83,77.2 C139.67,77.2 138.83,77.2 138.2,77.28 L138.2,75.92 C139,75.98 139.6,76 140.01,76 L141.01,76 L141.01,72.91 C140.32,73.01 139.58,73.14 138.63,73.28 Z M120.16,72.08 C121.07,72.13 122.16,72.16 123.4,72.15 L130.71,72.15 C131.87,72.15 132.92,72.15 133.88,72.08 L133.88,73.51 C132.88,73.46 131.88,73.44 130.71,73.44 L127.77,73.44 L127.77,84.74 L132.45,84.74 C133.55,84.74 134.55,84.74 135.45,84.67 L135.45,86.09 C134.54,86.04 133.56,86.02 132.51,86.02 L121.32,86.02 C120.27,86.02 119.32,86.02 118.61,86.09 L118.61,84.67 C119.41,84.72 120.34,84.74 121.4,84.74 L126.32,84.74 L126.32,73.44 L123.45,73.44 C122.2,73.44 121.12,73.44 120.21,73.51 L120.16,72.08 Z M105.77,73.28 C105.71,74.1866667 105.66,75.0666667 105.62,75.92 C106.146938,77.3835387 106.799365,78.7988036 107.57,80.15 C108.11874,81.1560592 108.790571,82.0899046 109.57,82.93 C110.155878,82.3517283 110.672668,81.7074185 111.11,81.01 C111.608636,80.1851839 112.02721,79.3145502 112.36,78.41 L108.82,78.41 C109.11,77.76 109.41,77.06 109.72,76.3 C110.03,75.54 110.37,74.54 110.78,73.3 L105.77,73.28 Z M100.94,72 C101.84,72 102.68,72.08 103.43,72.08 L113.08,72.08 C112.65415,72.8307829 112.286408,73.6130692 111.98,74.42 C111.6,75.42 111.26,76.3 110.98,77.2 L114.44,77.2 L113.54,79.32 C113.23,80.02 112.93,80.65 112.63,81.2 C112.346609,81.7213664 112.032732,82.2255742 111.69,82.71 C111.36,83.16 111.02,83.59 110.69,83.99 C111.409462,84.5318502 112.213669,84.9508487 113.07,85.23 C114.134768,85.6162572 115.232692,85.9041276 116.35,86.09 C115.875485,86.5489434 115.53053,87.1250174 115.35,87.76 C114.078254,87.3852322 112.840504,86.9035134 111.65,86.32 C110.90061,85.9424568 110.193329,85.486579 109.54,84.96 C108.574765,85.5650124 107.572831,86.1093969 106.54,86.59 C105.6,87.01 104.54,87.43 103.41,87.83 C103.13643,87.2379948 102.724933,86.7201939 102.21,86.32 C102.9,86.17 103.56,86.02 104.16,85.87 C104.727623,85.728722 105.282792,85.5414359 105.82,85.31 C106.32,85.08 106.82,84.85 107.21,84.63 C107.617163,84.4190778 108.008223,84.1784256 108.38,83.91 C107.767746,83.1511087 107.216049,82.345297 106.73,81.5 C106.131904,80.4788845 105.600785,79.4199874 105.14,78.33 C104.974851,79.2753117 104.710041,80.2004724 104.35,81.09 C104.031021,81.8509646 103.667044,82.5922746 103.26,83.31 C102.883717,83.9731821 102.469703,84.6142349 102.02,85.23 C101.623829,85.7893277 101.18946,86.3205946 100.72,86.82 C100.246794,86.4432673 99.7415339,86.1086581 99.21,85.82 C100.277369,84.9576926 101.181648,83.9111667 101.88,82.73 C102.538296,81.6313392 103.058876,80.4558367 103.43,79.23 C103.756791,78.1462226 103.984395,77.0349841 104.11,75.91 C104.2,74.91 104.25,74.04 104.26,73.38 L103.43,73.38 C102.68,73.38 101.84,73.38 100.94,73.46 L100.94,72 Z M86.7,74.94 C86.8285348,74.6384015 87.007795,74.3610556 87.23,74.12 L88.59,74.87 L89.49,73.96 C89.79,74.22 90.09,74.49 90.39,74.79 C90.0323876,74.9787261 89.6969748,75.2068068 89.39,75.47 L90.67,76.3 C90.3925552,76.5243274 90.1379823,76.7755507 89.91,77.05 L88.64,76.05 C88.18,76.41 87.64,76.78 87.13,77.18 C86.906808,76.9755888 86.7026365,76.7513349 86.52,76.51 C87.02,76.21 87.52,75.91 87.96,75.6 C87.45,75.37 87.05,75.15 86.7,74.94 L86.7,74.94 Z M84.59,75.17 C84.9682429,75.1750436 85.3462404,75.1482827 85.72,75.09 L85.72,76.15 C85.3451799,76.1016776 84.9678895,76.0749668 84.59,76.07 L83.46,76.07 C83.46,76.48 83.46,76.93 83.46,77.43 L93.32,77.43 L93.47,76.07 L92.32,76.07 C92.0152229,76.0763585 91.7112117,76.1030848 91.41,76.15 L91.41,75.15 L93.52,75.15 L93.67,73.87 L92.32,73.87 C92.0153915,73.8717488 91.7112923,73.895141 91.41,73.94 L91.41,72.94 L93.75,72.94 L93.9,71.82 L92.17,71.82 C91.8916996,71.8158395 91.6136725,71.8392876 91.34,71.89 L91.34,70.83 C91.84,70.83 92.39,70.91 92.99,70.91 L95.11,70.91 C95,71.91 94.9,72.96 94.8,74.04 C94.7,75.12 94.6,76.24 94.5,77.39 L96.69,77.39 C96.6399912,77.8148867 96.6132845,78.242193 96.61,78.67 C96.6129807,79.0978176 96.6396883,79.5251406 96.69,79.95 L95.41,79.95 L95.41,78.29 L81.65,78.29 L81.65,80.03 L80.37,80.03 C80.37,79.48 80.44,79.03 80.44,78.63 C80.4394161,78.215696 80.4160474,77.8017375 80.37,77.39 L82.37,77.39 C82.37,76.49 82.37,75.68 82.37,74.98 C82.37,74.28 82.32,73.66 82.29,73.13 C82.26,72.6 82.23,71.84 82.18,70.83 C83.2608331,70.7906046 84.3295326,70.5883271 85.35,70.23 C85.4823232,70.7004656 85.7142277,71.1369917 86.03,71.51 L84.56,71.63 C84.1914649,71.644656 83.8241396,71.6813885 83.46,71.74 L83.46,72.94 L84.22,72.94 C84.67,72.94 85.22,72.87 85.73,72.87 L85.73,73.87 C85.22,73.87 84.73,73.8 84.22,73.8 L83.46,73.8 L83.46,75.08 L84.59,75.17 Z M90.32,71.17 C89.9068732,71.4211271 89.5271899,71.7235298 89.19,72.07 L90.47,72.97 C90.2044631,73.2322207 89.9540586,73.5093351 89.72,73.8 C89.3397217,73.4242836 88.935545,73.0735518 88.51,72.75 C88.11,73.05 87.65,73.43 87.15,73.88 C86.8596375,73.6420422 86.5825542,73.3883273 86.32,73.12 C86.87,72.77 87.32,72.45 87.76,72.12 C87.35,71.83 86.92,71.52 86.47,71.22 C86.6537473,70.9342045 86.8835171,70.6807819 87.15,70.47 L88.43,71.47 L89.43,70.34 C89.71,70.6 90.01,70.88 90.32,71.18 L90.32,71.17 Z M83.23,79.38 C84.13,79.44 85.04,79.46 85.95,79.46 L93.86,79.46 L93.86,80.36 C92.86,80.72 92,81.05 91.3,81.36 C90.6150643,81.6554701 89.9473374,81.9893335 89.3,82.36 L89.3,82.82 L93.9,82.82 C94.7,82.82 95.57,82.82 96.53,82.74 L96.53,83.87 C95.53,83.87 94.7,83.8 93.9,83.79 L89.32,83.79 L89.32,86.43 C89.32,87.08 89.04,87.43 88.49,87.56 C87.8908915,87.6668796 87.2867992,87.7436427 86.68,87.79 C86.5531734,87.2705353 86.3756554,86.7647764 86.15,86.28 C86.8,86.28 87.29,86.28 87.62,86.28 C87.95,86.28 88.08,85.95 88.03,85.34 L88.03,83.82 L82.91,83.82 C82.16,83.82 81.33,83.82 80.42,83.9 L80.42,82.82 C81.33,82.88 82.16,82.9 82.91,82.9 L88.03,82.9 C88.03,82.55 87.93,82.22 87.89,81.9 C88.9566682,81.5147061 89.9873191,81.0361896 90.97,80.47 L85.97,80.47 C85.07,80.47 84.14,80.47 83.18,80.55 L83.23,79.38 Z M65.52,79.68 C65.955211,79.4412127 66.4102357,79.2404665 66.88,79.08 C67.03,79.33 67.24,79.71 67.52,80.21 C67.8,80.71 68.11,81.21 68.46,81.79 C67.9411825,81.9726292 67.439281,82.2001579 66.96,82.47 C66.75,81.97 66.53,81.47 66.28,80.96 C66.0536995,80.5210647 65.7998593,80.0968843 65.52,79.69 L65.52,79.68 Z M66.2,76.37 C66.8676749,76.384204 67.5355928,76.3574873 68.2,76.29 L68.2,77.72 C67.5351473,77.6595963 66.8674489,77.6362269 66.2,77.65 L65.45,77.65 L65.45,85.41 C65.45,86.06 65.45,86.89 65.53,87.89 L63.94,87.89 C64.04,86.89 64.09,86.06 64.1,85.41 L64.1,80.41 C63.7706996,81.2542928 63.3796411,82.073176 62.93,82.86 C62.55,83.49 62.08,84.18 61.53,84.93 C61.1954974,84.4049889 60.7918766,83.9273711 60.33,83.51 C61.178925,82.7617795 61.9045088,81.8843292 62.48,80.91 C63.0772641,79.8693247 63.5664784,78.770268 63.94,77.63 L63.32,77.63 C62.41,77.63 61.53,77.63 60.68,77.7 L60.68,76.27 C61.53,76.32 62.41,76.35 63.32,76.35 L64,76.35 L64,73.35 L62.75,73.61 L61.28,73.95 C61.0609702,73.505926 60.8103252,73.0781587 60.53,72.67 L62.22,72.37 C62.8,72.27 63.38,72.15 63.96,71.99 C64.5207252,71.8527409 65.0718962,71.6790385 65.61,71.47 C66.1183452,71.2775452 66.6128462,71.050342 67.09,70.79 C67.3570146,71.3673342 67.7111458,71.9002174 68.14,72.37 C67.6162725,72.4074445 67.0972797,72.4945013 66.59,72.63 C66.17,72.76 65.75,72.88 65.35,72.97 L65.35,76.37 L66.2,76.37 Z M66.88,83 L71.02,82.17 L73.59,81.64 L73.59,73.2 C73.59,72.25 73.59,71.47 73.51,70.86 L75.09,70.86 C75.04,71.42 75.02,72.17 75.02,73.12 L75.02,81.34 C76.28,80.99 77.2,80.74 77.81,80.59 L78.11,82.02 C76.55,82.32 75.52,82.55 75.02,82.69 L75.02,85.18 C75.02,86.18 75.02,87.09 75.09,88.05 L73.51,88.05 C73.56,87.05 73.58,86.14 73.59,85.18 L73.59,83 C72.48,83.2 71.48,83.4 70.59,83.6 C69.7,83.8 68.68,84.08 67.59,84.43 L66.88,83 Z M68.69,78.17 L69.89,77.27 C70.2528958,77.6337307 70.5872191,78.024889 70.89,78.44 C71.2205133,78.8978483 71.5743122,79.3384281 71.95,79.76 C71.4802415,80.0344094 71.0261991,80.3348787 70.59,80.66 C70.29,80.16 70,79.72 69.73,79.34 C69.4103358,78.929949 69.0628493,78.5423679 68.69,78.18 L68.69,78.17 Z M69.14,73.12 C69.54,72.87 69.97,72.6 70.42,72.3 C70.62,72.5533333 70.91,72.9433333 71.29,73.47 L72.38,75.01 C71.88,75.26 71.38,75.51 71.02,75.76 C70.72,75.26 70.4,74.76 70.08,74.25 C69.8180069,73.8364239 69.5018704,73.4597506 69.14,73.13 L69.14,73.12 Z M45.4,84.2 C45.4,85.2 45.4,86.42 45.48,87.82 L44.2,87.82 C44.2,86.47 44.27,85.26 44.27,84.2 L44.27,79.08 C44.0375529,79.9566092 43.7018711,80.8025273 43.27,81.6 C42.84,82.38 42.45,83.05 42.11,83.6 C41.7,83.15 41.37,82.77 41.11,82.47 C41.4430168,82.1208555 41.7442114,81.742689 42.01,81.34 C42.3390649,80.8358076 42.6298793,80.3076617 42.88,79.76 C43.1651693,79.1115582 43.4024706,78.443104 43.59,77.76 C43.79,77.06 43.97,76.3 44.12,75.49 L43.52,75.49 C42.91,75.49 42.28,75.49 41.64,75.57 L41.64,74.44 C42.33,74.5 42.94,74.52 43.44,74.52 L44.32,74.52 L44.32,72.93 C44.32,72.13 44.32,71.33 44.25,70.52 L45.53,70.52 C45.47,71.13 45.45,71.93 45.45,72.93 L45.45,74.52 C45.95,74.52 46.63,74.52 47.45,74.44 L47.45,75.57 L45.45,75.49 L45.45,77.68 C45.771392,77.5047624 46.1056974,77.354325 46.45,77.23 C46.8992525,78.0368901 47.3032115,78.8681777 47.66,79.72 C47.265339,79.8840957 46.8870031,80.084982 46.53,80.32 C46.2970427,79.4437579 45.9401038,78.6052882 45.47,77.83 L45.4,84.2 Z M48.8,81.27 C48.3190282,81.2643067 47.8381518,81.2876826 47.36,81.34 L47.36,80.14 L48.87,80.28 L48.87,79.08 L50.15,79.08 C50.0568293,79.4734126 50.0065361,79.8757581 50,80.28 L52.71,80.28 C52.4750231,78.405962 52.3614529,76.5186926 52.37,74.63 C52.4073005,73.2723424 52.3705794,71.9136608 52.26,70.56 L53.62,70.56 C53.4519985,71.8862894 53.4018023,73.2248531 53.47,74.56 C53.51,76.14 53.61,78.06 53.77,80.32 L56.93,80.32 C57.28,80.32 57.76,80.32 58.36,80.25 L58.36,81.38 C57.81,81.33 57.16,81.31 56.41,81.31 L53.84,81.31 C53.8404875,81.764131 53.8907883,82.2168384 53.99,82.66 C54.108108,83.15637 54.2860783,83.636554 54.52,84.09 C54.9249802,83.7859798 55.291058,83.433336 55.61,83.04 C55.9860009,82.6196426 56.320864,82.1642287 56.61,81.68 C56.9216685,82.0032314 57.2558378,82.3039838 57.61,82.58 C57.2531207,82.9386821 56.9191295,83.3194321 56.61,83.72 C56.1844147,84.210744 55.7158903,84.6625353 55.21,85.07 C55.3880449,85.3949191 55.6177043,85.6887481 55.89,85.94 C56.1181003,86.2363225 56.4173572,86.4702245 56.76,86.62 C56.9079155,86.6463731 57.0596466,86.601964 57.17,86.5 C57.3802128,86.149071 57.5353503,85.7679724 57.63,85.37 C57.9583628,85.6686655 58.3423374,85.8997299 58.76,86.05 C58.5551527,86.6057538 58.2867016,87.1359446 57.96,87.63 C57.7591757,87.9185435 57.4014444,88.0536864 57.06,87.97 C56.5151515,87.8042728 56.0133366,87.5209351 55.59,87.14 C55.0788653,86.7622328 54.6444424,86.2904767 54.31,85.75 C54.01,85.95 53.57,86.22 52.99,86.58 C52.41,86.94 51.72,87.31 50.92,87.71 C50.6631972,87.3191386 50.386153,86.9419581 50.09,86.58 C50.8870499,86.419678 51.6511893,86.1255181 52.35,85.71 C52.8244039,85.4283042 53.2788154,85.1142257 53.71,84.77 C53.4050064,84.1783731 53.1893324,83.5448307 53.07,82.89 C52.94,82.23 52.85,81.71 52.8,81.31 L50.02,81.31 C49.91,81.86 49.81,82.4 49.71,82.93 C49.4969312,84.0513252 49.0763937,85.1230175 48.47,86.09 C48.0878713,86.6787824 47.6739235,87.2462914 47.23,87.79 C46.8828031,87.4753022 46.5041418,87.1971705 46.1,86.96 C47.14486,86.1661114 47.9199686,85.0697866 48.32,83.82 C48.5828288,82.9960369 48.7440226,82.1430532 48.8,81.28 L48.8,81.27 Z M55.43,70.82 C55.77,71.02 56.15,71.22 56.56,71.42 C56.2428477,71.7260348 55.9970204,72.09819 55.84,72.51 C55.56,73.09 55.3,73.68 55.05,74.28 L56.33,73.98 C56.48,73.59 56.65,73.08 56.86,72.47 C57.21,72.63 57.56,72.81 57.91,73 C57.76,73.31 57.34,74.05 56.67,75.23 C56,76.41 55.52,77.23 55.28,77.6 C55.83,77.45 56.38,77.33 56.93,77.22 C56.7771795,76.9689917 56.6752433,76.6903659 56.63,76.4 L57.46,76.02 C57.61,76.37 57.74,76.73 57.87,77.11 C58,77.49 58.16,77.9 58.36,78.35 C58.0152498,78.4771874 57.6809091,78.6309841 57.36,78.81 C57.26,78.51 57.19,78.26 57.14,78.05 C56.78,78.05 56.34,78.18 55.82,78.28 C55.3219885,78.3733591 54.8308663,78.5003159 54.35,78.66 L53.97,77.53 C54.4770026,77.277814 54.887814,76.8670026 55.14,76.36 C55.4347129,75.8875227 55.6985957,75.3965003 55.93,74.89 C55.3407821,74.986764 54.7616872,75.1373957 54.2,75.34 L53.82,74.28 C54.279882,73.9327653 54.6135221,73.4445972 54.77,72.89 C55.0302972,72.2135027 55.250676,71.5223149 55.43,70.82 Z M56.63,78.43 C56.83,78.83 57.05,79.29 57.31,79.79 C56.9790463,79.9031733 56.6733403,80.0798035 56.41,80.31 C56.15,79.71 55.93,79.24 55.73,78.88 C56.0213041,78.7072167 56.3217432,78.5503208 56.63,78.41 L56.63,78.43 Z M50.22,82.35 L51.36,83.35 C51.6509684,83.6225108 51.9279879,83.9095431 52.19,84.21 C51.8468675,84.4073634 51.5392673,84.6608801 51.28,84.96 C50.98,84.61 50.7,84.31 50.45,84.06 C50.2,83.81 49.9,83.54 49.55,83.23 C49.756314,82.9176975 49.9799993,82.6172246 50.22,82.33 L50.22,82.35 Z M49.4,70.82 C49.74,71.02 50.12,71.22 50.53,71.42 L49.77,72.78 C49.52,73.23 49.22,73.78 48.87,74.36 L50.15,74.06 C50.35,73.66 50.58,73.16 50.83,72.55 L51.88,73.23 C51.3871625,73.8863257 50.949025,74.5819943 50.57,75.31 C50.1196698,76.1414492 49.60123,76.9341604 49.02,77.68 C49.6152227,77.4963578 50.2193222,77.3428297 50.83,77.22 C50.727865,76.9785312 50.6507941,76.7272133 50.6,76.47 L51.43,76.09 C51.73,76.85 52.03,77.63 52.34,78.43 C51.9859075,78.528786 51.6487702,78.6804978 51.34,78.88 C51.288519,78.5969637 51.2115386,78.3191649 51.11,78.05 C50.6146972,78.1082518 50.1236747,78.1984396 49.64,78.32 L47.94,78.73 L47.57,77.53 C47.92,77.53 48.34,77.17 48.85,76.44 C49.212627,75.9428315 49.5465061,75.4253189 49.85,74.89 C49.2641795,75.0352744 48.6866654,75.2122007 48.12,75.42 L47.66,74.36 C47.91,74.26 48.23,73.81 48.61,73 C48.9418359,72.300016 49.2063598,71.5700641 49.4,70.82 L49.4,70.82 Z M26.49,80.01 L26.49,81.01 L34.7,81.01 L34.7,80.01 L26.49,80.01 Z M26.49,78.01 L26.49,78.92 L34.7,78.92 L34.7,78.01 L26.49,78.01 Z M26.49,76.01 L26.49,76.92 L34.7,76.92 L34.7,76.01 L26.49,76.01 Z M24.98,74.96 L36.21,74.96 C36.15,75.86 36.13,77.02 36.13,78.43 C36.13,79.84 36.13,81.02 36.21,81.97 L34.48,81.97 L34.48,83.32 L36.48,83.32 C37.23,83.32 38.08,83.32 39.04,83.25 L39.04,84.45 C38.04,84.45 37.23,84.38 36.48,84.38 L34.48,84.38 C34.48,85.53 34.48,86.66 34.55,87.77 L32.97,87.77 C32.97,86.66 33.04,85.53 33.04,84.38 L28.97,84.38 C28.6687178,85.1640238 28.1649324,85.8541408 27.51,86.38 C26.5819269,87.0514236 25.5474833,87.5618844 24.45,87.89 C24.2147429,87.3950537 23.873315,86.958026 23.45,86.61 C24.3572016,86.4592406 25.2347627,86.1655952 26.05,85.74 C26.6605526,85.4235434 27.1699081,84.9419079 27.52,84.35 L24.95,84.35 C24.14,84.35 23.27,84.35 22.32,84.42 L22.32,83.22 C23.32,83.22 24.2,83.3 24.95,83.29 L27.74,83.29 C27.8453863,82.8478912 27.8957676,82.3944592 27.89,81.94 L25.03,81.94 C25.08,81.04 25.1,79.87 25.11,78.43 C25.12,76.99 25.03,75.92 24.98,75.02 L24.98,74.96 Z M29.2,81.96 C29.1995483,82.4108952 29.1761849,82.8614762 29.13,83.31 L33.04,83.31 L33.04,81.96 L29.2,81.96 Z M32.59,70.12 C33.1760182,70.3511733 33.7818468,70.5285707 34.4,70.65 C34.015899,70.9822767 33.6794026,71.3658825 33.4,71.79 L36.32,71.79 C36.82,71.79 37.5,71.79 38.32,71.71 L38.32,72.99 C37.57,72.94 36.64,72.92 35.54,72.91 C35.68,73.22 35.88,73.62 36.14,74.12 C35.6281188,74.1707269 35.1223968,74.2712015 34.63,74.42 L34.18,72.91 L32.52,72.91 C32.1720933,73.4823735 31.7949267,74.0364413 31.39,74.57 C30.9484409,74.2949032 30.4656547,74.0923355 29.96,73.97 C30.5298279,73.4026395 31.0454017,72.7832814 31.5,72.12 C31.9452529,71.5265013 32.3116428,70.8777559 32.59,70.19 L32.59,70.12 Z M25.06,70.05 C25.5568104,70.3211823 26.088415,70.5230574 26.64,70.65 C26.2727793,70.9988824 25.938066,71.3804556 25.64,71.79 L28.35,71.79 C28.95,71.79 29.66,71.79 30.46,71.71 L30.46,72.99 C29.66,72.94 28.73,72.92 27.67,72.91 C27.77,73.27 27.92,73.72 28.13,74.27 C27.6091005,74.3121984 27.0988253,74.440612 26.62,74.65 C26.47,74.05 26.31,73.47 26.17,72.91 L24.81,72.91 C24.4576715,73.4987697 24.0526799,74.054378 23.6,74.57 C23.1259894,74.3103184 22.6223398,74.1088586 22.1,73.97 C22.6440987,73.4725707 23.1458321,72.9306986 23.6,72.35 C24.1647543,71.6608264 24.6542028,70.9132441 25.06,70.12 L25.06,70.05 Z M5.46,70.8 L6.66,70.2 C7.00231391,70.8482334 7.30617278,71.5160551 7.57,72.2 C6.91,72.45 6.44,72.65 6.14,72.8 C5.94867165,72.1447562 5.72166629,71.5004615 5.46,70.87 L5.46,70.8 Z M4.85,82.18 L4.85,84.97 L7.85,84.97 L7.85,82.18 L4.85,82.18 Z M3.42,81.13 L9.42,81.13 C9.36,81.83 9.34,82.88 9.34,84.25 C9.34,85.62 9.34,86.63 9.42,87.25 L7.91,87.25 L7.91,86.04 L4.91,86.04 L4.91,87.33 L3.42,87.33 C3.47,86.07 3.5,85.03 3.5,84.2 C3.5,83.37 3.47,82.41 3.42,81.2 L3.42,81.13 Z M3.5,78.49 C4.1,78.49 5.1,78.57 6.5,78.57 C7.9,78.57 8.83,78.57 9.29,78.49 L9.29,79.82 C8.83,79.82 7.93,79.74 6.58,79.74 C5.23,79.74 4.19,79.74 3.49,79.82 L3.5,78.49 Z M3.42,76 C4.03,76.06 5.04,76.08 6.47,76.08 C7.9,76.08 8.87,76.08 9.38,76 L9.38,77.21 C8.87,77.16 7.91,77.14 6.51,77.13 C5.11,77.12 4.07,77.13 3.42,77.21 L3.42,76 Z M2.97,73.21 C4.15814121,73.3467632 5.35439554,73.4002271 6.55,73.37 C8.28,73.37 9.43,73.37 9.98,73.29 L9.98,74.5 C9.43,74.45 8.25,74.43 6.44,74.42 C4.63,74.41 3.44,74.42 2.97,74.5 L2.97,73.21 Z M14.05,77.82 C12.05,77.82 10.68,77.82 9.98,77.9 L9.98,76.69 C11.08,76.75 12.44,76.78 14.05,76.77 L14.05,74.77 C14.05,73.16 14.05,71.77 13.98,70.62 L15.56,70.62 C15.5,71.68 15.48,72.96 15.48,74.46 L15.48,76.8 C17.48,76.8 18.94,76.8 20.01,76.72 L20.01,77.93 C18.89,77.93 17.39,77.86 15.48,77.85 L15.48,85.47 C15.48,85.82 15.48,86.55 15.56,87.65 L13.98,87.65 C13.98,86.4 14.05,85.39 14.05,84.65 L14.05,77.82 Z" id="Shape" fill="#203A66"></path>
        </g>
    </g>
</svg>